<?xml version="1.0" encoding="UTF-8"?>
<!-- Created with Inkscape (http://www.inkscape.org/) -->
<svg width="220" height="600" version="1.1" viewBox="0 0 219.99999 600" xml:space="preserve" xmlns="http://www.w3.org/2000/svg" xmlns:cc="http://creativecommons.org/ns#" xmlns:dc="http://purl.org/dc/elements/1.1/" xmlns:rdf="http://www.w3.org/1999/02/22-rdf-syntax-ns#"><metadata><rdf:RDF><cc:Work rdf:about=""><dc:format>image/svg+xml</dc:format><dc:type rdf:resource="http://purl.org/dc/dcmitype/StillImage"/><dc:title/></cc:Work></rdf:RDF></metadata><defs><clipPath id="clipPath4217"><path d="m0 595h842v-595h-842z"/></clipPath><clipPath id="clipPath4529"><path d="m418 498h64.5v-250h-64.5z"/></clipPath></defs><g transform="matrix(1.33 0 0 -1.33 0 600)"><g transform="translate(-337 -55.2)"><g clip-path="url(#clipPath4217)"><g transform="translate(398 365)"><path d="m0 0s0.608 1.18 1.68 2.86c1.05 1.7 2.61 3.86 4.32 5.92 0.434 0.513 0.868 1.03 1.3 1.53 0.442 0.495 0.866 0.995 1.34 1.42 0.481 0.414 0.932 0.828 1.43 1.14 0.484 0.33 0.937 0.643 1.39 0.887 0.45 0.248 0.876 0.45 1.25 0.629 0.376 0.175 0.733 0.283 1.02 0.379 0.573 0.187 0.911 0.258 0.911 0.258l0.098-0.174s-0.223-0.275-0.632-0.694c-0.2-0.217-0.462-0.442-0.738-0.737-0.279-0.289-0.591-0.613-0.946-0.941-0.347-0.338-0.709-0.724-1.11-1.1-0.399-0.379-0.806-0.801-1.26-1.2-0.46-0.388-0.921-0.811-1.42-1.21-0.494-0.406-0.96-0.859-1.45-1.29-0.932-0.907-1.85-1.84-2.68-2.74-0.83-0.904-1.59-1.77-2.24-2.51-1.28-1.5-2.08-2.55-2.08-2.55z" fill="#d1caca"/></g><g transform="translate(373 248)"><path d="m0 0h92.7s-9.84-18.8-19.4-32.7h-54.7s-13.5 19.5-18.6 32.7" fill="#6a6a6b"/></g><g transform="translate(413 236)"><path d="m0 0h11.2v28l-5.67 1.79-5.67-2.19z" fill="#e52523"/></g><g transform="translate(419 248)"><path d="m0 0h-45.4s-53.5 100 36.5 243c1.19 1.89 4.9 6.08 7.97 6.05l0.929-0.025c5.06 0.133 7.99-4.16 9.28-6.03 93.6-135 38-243 38-243h-47.3" fill="#e6eef1"/></g><g transform="translate(474 267)"><path d="m0 0s6.95-10.7 11.3-15.8c4.33-5.17 9.67-19.2 9.67-19.2s0-2.33-1.67-8c-1.67-5.67-29.7-94.7-29.7-94.7s-3-9.11 0 25.1c3 34.2 7 66.6 7 66.6s-5.76 14.9-9.55 14.8" fill="#e52523" stroke="#000" stroke-miterlimit="10" stroke-width="2"/></g><g transform="translate(366 267)"><path d="m0 0s-6.95-10.7-11.3-15.8c-4.33-5.17-9.67-19.2-9.67-19.2s0-2.33 1.67-8c1.67-5.67 29.7-94.7 29.7-94.7s3-9.11 0 25.1c-3 34.2-7 66.6-7 66.6s5.76 14.9 9.55 14.8" fill="#e52523" stroke="#000" stroke-miterlimit="10" stroke-width="2"/></g><g transform="translate(400 475)"><path d="m0 0h38.1" fill="none" stroke="#000" stroke-miterlimit="10" stroke-width="2"/></g><g transform="translate(374 423)"><path d="m0 0 91-1.1" fill="none" stroke="#000" stroke-miterlimit="10" stroke-width="2"/></g><g transform="translate(420 423)"><path d="m0 0v-20.5" fill="none" stroke="#000" stroke-miterlimit="10" stroke-width="2"/></g><g transform="translate(452 359)"><path d="m0 0c0-17.9-14.5-32.3-32.3-32.3s-32.3 14.5-32.3 32.3 14.5 32.3 32.3 32.3 32.3-14.5 32.3-32.3z" fill="none" stroke="#000" stroke-miterlimit="10" stroke-width="2"/></g><g transform="translate(462 359)"><path d="m0 0c0-23.7-18.8-42.8-42-42.8s-42 19.2-42 42.8 18.8 42.8 42 42.8 42-19.2 42-42.8z" fill="none" stroke="#000" stroke-miterlimit="10" stroke-width="2"/></g><g transform="translate(452 359)"><path d="m0 0c0-17.9-14.5-32.3-32.3-32.3s-32.3 14.5-32.3 32.3 14.5 32.3 32.3 32.3 32.3-14.5 32.3-32.3" fill="#696a6b"/></g><g transform="translate(462 359)"><path d="m0 0c0-23.7-18.8-42.8-42-42.8s-42 19.2-42 42.8 18.8 42.8 42 42.8 42-19.2 42-42.8" fill="#696a6b"/></g><g transform="translate(462 359)"><path d="m0 0c0-23.7-18.8-42.8-42-42.8s-42 19.2-42 42.8 18.8 42.8 42 42.8 42-19.2 42-42.8z" fill="none" stroke="#000" stroke-miterlimit="10"/></g><g transform="translate(452 359)"><path d="m0 0c0-17.9-14.5-32.3-32.3-32.3s-32.3 14.5-32.3 32.3 14.5 32.3 32.3 32.3 32.3-14.5 32.3-32.3" fill="#8ed1ee"/></g><g transform="translate(452 359)"><path d="m0 0c0-17.9-14.5-32.3-32.3-32.3s-32.3 14.5-32.3 32.3 14.5 32.3 32.3 32.3 32.3-14.5 32.3-32.3z" fill="none" stroke="#000" stroke-miterlimit="10" stroke-width="2"/></g><g transform="translate(462 359)"><path d="m0 0c0-23.7-18.8-42.8-42-42.8s-42 19.2-42 42.8 18.8 42.8 42 42.8 42-19.2 42-42.8z" fill="none" stroke="#000" stroke-miterlimit="10" stroke-width="2"/></g><g transform="translate(419 316)"><path d="m0 0v-51s-5.67-1.33-5.67-3.67c0-2.33 0.167-13.7 0.167-13.7h-39.9" fill="none" stroke="#000" stroke-miterlimit="10" stroke-width="2"/></g><g transform="translate(419 265)"><path d="m0 0s5-1 5.67-3v-14.3h41.6" fill="none" stroke="#000" stroke-miterlimit="10" stroke-width="2"/></g><g transform="translate(413 248)"><path d="m0 0v-32.7" fill="none" stroke="#000" stroke-miterlimit="10" stroke-width="2"/></g><g transform="translate(424 215)"><path d="m0 0v32.7" fill="none" stroke="#000" stroke-miterlimit="10" stroke-width="2"/></g><g transform="translate(431 215)"><path d="m0 0 12.7 32.7" fill="none" stroke="#000" stroke-miterlimit="10" stroke-width="2"/></g><g transform="translate(406 215)"><path d="m0 0-15 32.7" fill="none" stroke="#000" stroke-miterlimit="10" stroke-width="2"/></g><g transform="translate(483 336)"><path d="m0 0s-4.33 1.7-9.66 0c-5.33-1.7-13.7-43.7-13.2-57 0 0 1.52-5.26 14-8.46" fill="none" stroke="#000" stroke-miterlimit="10" stroke-width="2"/></g><g transform="translate(357 338)"><path d="m0 0s4.33 1.7 9.66 0c5.33-1.7 13.7-43.7 13.2-57 0 0-1.52-5.26-14-8.46" fill="none" stroke="#000" stroke-miterlimit="10" stroke-width="2"/></g><g transform="translate(423 428)"><path d="m0 0c0-1.1-1.04-2-2.33-2-1.29 0-2.33 0.895-2.33 2s1.04 2 2.33 2c1.29 0 2.33-0.895 2.33-2" fill="#1d1d1b"/></g><g transform="translate(423 428)"><path d="m0 0c0-1.1-1.04-2-2.33-2-1.29 0-2.33 0.895-2.33 2s1.04 2 2.33 2c1.29 0 2.33-0.895 2.33-2z" fill="none" stroke="#000" stroke-miterlimit="10" stroke-width="2"/></g><g transform="translate(423 428)"><path d="m0 0c0-1.1-1.04-2-2.33-2-1.29 0-2.33 0.895-2.33 2s1.04 2 2.33 2c1.29 0 2.33-0.895 2.33-2" fill="#1d1d1b"/></g><g transform="translate(423 428)"><path d="m0 0c0-1.1-1.04-2-2.33-2-1.29 0-2.33 0.895-2.33 2s1.04 2 2.33 2c1.29 0 2.33-0.895 2.33-2z" fill="none" stroke="#000" stroke-miterlimit="10" stroke-width="2"/></g><g transform="translate(440 428)"><path d="m0 0c0-0.621-0.588-1.12-1.31-1.12-0.725 0-1.31 0.504-1.31 1.12s0.588 1.12 1.31 1.12c0.724 0 1.31-0.504 1.31-1.12" fill="#1d1d1b"/></g><g transform="translate(440 428)"><path d="m0 0c0-0.621-0.588-1.12-1.31-1.12-0.725 0-1.31 0.504-1.31 1.12s0.588 1.12 1.31 1.12c0.724 0 1.31-0.504 1.31-1.12z" fill="none" stroke="#000" stroke-miterlimit="10" stroke-width="2"/></g><g transform="translate(455 427)"><path d="m0 0c0-0.621-0.588-1.12-1.31-1.12-0.725 0-1.31 0.504-1.31 1.12s0.588 1.12 1.31 1.12c0.724 0 1.31-0.504 1.31-1.12" fill="#1d1d1b"/></g><g transform="translate(455 427)"><path d="m0 0c0-0.621-0.588-1.12-1.31-1.12-0.725 0-1.31 0.504-1.31 1.12s0.588 1.12 1.31 1.12c0.724 0 1.31-0.504 1.31-1.12z" fill="none" stroke="#000" stroke-miterlimit="10" stroke-width="2"/></g><g transform="translate(402 428)"><path d="m0 0c0-0.621-0.588-1.12-1.31-1.12-0.725 0-1.31 0.504-1.31 1.12s0.588 1.12 1.31 1.12c0.724 0 1.31-0.504 1.31-1.12" fill="#1d1d1b"/></g><g transform="translate(402 428)"><path d="m0 0c0-0.621-0.588-1.12-1.31-1.12-0.725 0-1.31 0.504-1.31 1.12s0.588 1.12 1.31 1.12c0.724 0 1.31-0.504 1.31-1.12z" fill="none" stroke="#000" stroke-miterlimit="10" stroke-width="2"/></g><g transform="translate(386 427)"><path d="m0 0c0-0.621-0.588-1.12-1.31-1.12-0.725 0-1.31 0.504-1.31 1.12s0.588 1.12 1.31 1.12c0.724 0 1.31-0.504 1.31-1.12" fill="#1d1d1b"/></g><g transform="translate(386 427)"><path d="m0 0c0-0.621-0.588-1.12-1.31-1.12-0.725 0-1.31 0.504-1.31 1.12s0.588 1.12 1.31 1.12c0.724 0 1.31-0.504 1.31-1.12z" fill="none" stroke="#000" stroke-miterlimit="10" stroke-width="2"/></g><g transform="translate(416 415)"><path d="m0 0c0-0.621-0.588-1.12-1.31-1.12-0.725 0-1.31 0.504-1.31 1.12s0.588 1.12 1.31 1.12c0.724 0 1.31-0.504 1.31-1.12" fill="#1d1d1b"/></g><g transform="translate(416 415)"><path d="m0 0c0-0.621-0.588-1.12-1.31-1.12-0.725 0-1.31 0.504-1.31 1.12s0.588 1.12 1.31 1.12c0.724 0 1.31-0.504 1.31-1.12z" fill="none" stroke="#000" stroke-miterlimit="10" stroke-width="2"/></g><g transform="translate(416 406)"><path d="m0 0c0-0.621-0.588-1.12-1.31-1.12-0.725 0-1.31 0.504-1.31 1.12s0.588 1.12 1.31 1.12c0.724 0 1.31-0.504 1.31-1.12" fill="#1d1d1b"/></g><g transform="translate(416 406)"><path d="m0 0c0-0.621-0.588-1.12-1.31-1.12-0.725 0-1.31 0.504-1.31 1.12s0.588 1.12 1.31 1.12c0.724 0 1.31-0.504 1.31-1.12z" fill="none" stroke="#000" stroke-miterlimit="10" stroke-width="2"/></g><g transform="translate(477 329)"><path d="m0 0c0-0.621-0.588-1.12-1.31-1.12-0.725 0-1.31 0.504-1.31 1.12s0.588 1.12 1.31 1.12c0.724 0 1.31-0.504 1.31-1.12" fill="#1d1d1b"/></g><g transform="translate(477 329)"><path d="m0 0c0-0.621-0.588-1.12-1.31-1.12-0.725 0-1.31 0.504-1.31 1.12s0.588 1.12 1.31 1.12c0.724 0 1.31-0.504 1.31-1.12z" fill="none" stroke="#000" stroke-miterlimit="10"/></g><g transform="translate(473 316)"><path d="m0 0c0-0.621-0.588-1.12-1.31-1.12-0.725 0-1.31 0.504-1.31 1.12s0.588 1.12 1.31 1.12c0.724 0 1.31-0.504 1.31-1.12" fill="#1d1d1b"/></g><g transform="translate(473 316)"><path d="m0 0c0-0.621-0.588-1.12-1.31-1.12-0.725 0-1.31 0.504-1.31 1.12s0.588 1.12 1.31 1.12c0.724 0 1.31-0.504 1.31-1.12z" fill="none" stroke="#000" stroke-miterlimit="10"/></g><g transform="translate(470 304)"><path d="m0 0c0-0.621-0.588-1.12-1.31-1.12-0.725 0-1.31 0.504-1.31 1.12s0.588 1.12 1.31 1.12c0.724 0 1.31-0.504 1.31-1.12" fill="#1d1d1b"/></g><g transform="translate(470 304)"><path d="m0 0c0-0.621-0.588-1.12-1.31-1.12-0.725 0-1.31 0.504-1.31 1.12s0.588 1.12 1.31 1.12c0.724 0 1.31-0.504 1.31-1.12z" fill="none" stroke="#000" stroke-miterlimit="10"/></g><g transform="translate(467 291)"><path d="m0 0c0-0.621-0.588-1.12-1.31-1.12-0.725 0-1.31 0.504-1.31 1.12s0.588 1.12 1.31 1.12c0.724 0 1.31-0.504 1.31-1.12" fill="#1d1d1b"/></g><g transform="translate(467 291)"><path d="m0 0c0-0.621-0.588-1.12-1.31-1.12-0.725 0-1.31 0.504-1.31 1.12s0.588 1.12 1.31 1.12c0.724 0 1.31-0.504 1.31-1.12z" fill="none" stroke="#000" stroke-miterlimit="10"/></g><g transform="translate(471 279)"><path d="m0 0c0-0.621-0.588-1.12-1.31-1.12-0.725 0-1.31 0.504-1.31 1.12s0.588 1.12 1.31 1.12c0.724 0 1.31-0.504 1.31-1.12" fill="#1d1d1b"/></g><g transform="translate(471 279)"><path d="m0 0c0-0.621-0.588-1.12-1.31-1.12-0.725 0-1.31 0.504-1.31 1.12s0.588 1.12 1.31 1.12c0.724 0 1.31-0.504 1.31-1.12z" fill="none" stroke="#000" stroke-miterlimit="10"/></g><g transform="translate(363 331)"><path d="m0 0c0-0.621 0.588-1.12 1.31-1.12 0.725 0 1.31 0.504 1.31 1.12s-0.588 1.12-1.31 1.12c-0.724 0-1.31-0.504-1.31-1.12" fill="#1d1d1b"/></g><g transform="translate(363 331)"><path d="m0 0c0-0.621 0.588-1.12 1.31-1.12 0.725 0 1.31 0.504 1.31 1.12s-0.588 1.12-1.31 1.12c-0.724 0-1.31-0.504-1.31-1.12z" fill="none" stroke="#000" stroke-miterlimit="10"/></g><g transform="translate(367 318)"><path d="m0 0c0-0.621 0.588-1.12 1.31-1.12 0.725 0 1.31 0.504 1.31 1.12s-0.588 1.12-1.31 1.12c-0.724 0-1.31-0.504-1.31-1.12" fill="#1d1d1b"/></g><g transform="translate(367 318)"><path d="m0 0c0-0.621 0.588-1.12 1.31-1.12 0.725 0 1.31 0.504 1.31 1.12s-0.588 1.12-1.31 1.12c-0.724 0-1.31-0.504-1.31-1.12z" fill="none" stroke="#000" stroke-miterlimit="10"/></g><g transform="translate(369 305)"><path d="m0 0c0-0.621 0.588-1.12 1.31-1.12 0.725 0 1.31 0.504 1.31 1.12s-0.588 1.12-1.31 1.12c-0.724 0-1.31-0.504-1.31-1.12" fill="#1d1d1b"/></g><g transform="translate(369 305)"><path d="m0 0c0-0.621 0.588-1.12 1.31-1.12 0.725 0 1.31 0.504 1.31 1.12s-0.588 1.12-1.31 1.12c-0.724 0-1.31-0.504-1.31-1.12z" fill="none" stroke="#000" stroke-miterlimit="10"/></g><g transform="translate(372 292)"><path d="m0 0c0-0.621 0.588-1.12 1.31-1.12 0.725 0 1.31 0.504 1.31 1.12s-0.588 1.12-1.31 1.12c-0.724 0-1.31-0.504-1.31-1.12" fill="#1d1d1b"/></g><g transform="translate(372 292)"><path d="m0 0c0-0.621 0.588-1.12 1.31-1.12 0.725 0 1.31 0.504 1.31 1.12s-0.588 1.12-1.31 1.12c-0.724 0-1.31-0.504-1.31-1.12z" fill="none" stroke="#000" stroke-miterlimit="10"/></g><g transform="translate(368 281)"><path d="m0 0c0-0.621 0.588-1.12 1.31-1.12 0.725 0 1.31 0.504 1.31 1.12s-0.588 1.12-1.31 1.12c-0.724 0-1.31-0.504-1.31-1.12" fill="#1d1d1b"/></g><g transform="translate(368 281)"><path d="m0 0c0-0.621 0.588-1.12 1.31-1.12 0.725 0 1.31 0.504 1.31 1.12s-0.588 1.12-1.31 1.12c-0.724 0-1.31-0.504-1.31-1.12z" fill="none" stroke="#000" stroke-miterlimit="10"/></g><g transform="translate(413 309)"><path d="m0 0c0-0.621-0.588-1.12-1.31-1.12-0.725 0-1.31 0.504-1.31 1.12s0.588 1.12 1.31 1.12c0.724 0 1.31-0.504 1.31-1.12" fill="#1d1d1b"/></g><g transform="translate(413 309)"><path d="m0 0c0-0.621-0.588-1.12-1.31-1.12-0.725 0-1.31 0.504-1.31 1.12s0.588 1.12 1.31 1.12c0.724 0 1.31-0.504 1.31-1.12z" fill="none" stroke="#000" stroke-miterlimit="10"/></g><g transform="translate(413 297)"><path d="m0 0c0-0.621-0.588-1.12-1.31-1.12-0.725 0-1.31 0.504-1.31 1.12s0.588 1.12 1.31 1.12c0.724 0 1.31-0.504 1.31-1.12" fill="#1d1d1b"/></g><g transform="translate(413 297)"><path d="m0 0c0-0.621-0.588-1.12-1.31-1.12-0.725 0-1.31 0.504-1.31 1.12s0.588 1.12 1.31 1.12c0.724 0 1.31-0.504 1.31-1.12z" fill="none" stroke="#000" stroke-miterlimit="10"/></g><g transform="translate(413 285)"><path d="m0 0c0-0.621-0.588-1.12-1.31-1.12-0.725 0-1.31 0.504-1.31 1.12s0.588 1.12 1.31 1.12c0.724 0 1.31-0.504 1.31-1.12" fill="#1d1d1b"/></g><g transform="translate(413 285)"><path d="m0 0c0-0.621-0.588-1.12-1.31-1.12-0.725 0-1.31 0.504-1.31 1.12s0.588 1.12 1.31 1.12c0.724 0 1.31-0.504 1.31-1.12z" fill="none" stroke="#000" stroke-miterlimit="10"/></g><g transform="translate(413 274)"><path d="m0 0c0-0.621-0.588-1.12-1.31-1.12-0.725 0-1.31 0.504-1.31 1.12s0.588 1.12 1.31 1.12c0.724 0 1.31-0.504 1.31-1.12" fill="#1d1d1b"/></g><g transform="translate(413 274)"><path d="m0 0c0-0.621-0.588-1.12-1.31-1.12-0.725 0-1.31 0.504-1.31 1.12s0.588 1.12 1.31 1.12c0.724 0 1.31-0.504 1.31-1.12z" fill="none" stroke="#000" stroke-miterlimit="10"/></g><g transform="translate(442 215)"><path d="m0 0c16.1-28.7 0.801-64.1-2.19-70.4-0.348-0.739-0.668-1.48-0.952-2.25-11.3-30.3-21.6-67-21.6-67-7.41 35.9-22.5 62.3-27.4 99.9-3.91 30.2 7.97 39.7 7.97 39.7z" fill="#e84330"/></g><g transform="translate(441 215)"><path d="m0 0c16-29.5 0.799-65.7-2.18-72.2-0.348-0.758-0.667-1.52-0.95-2.3-11.2-31-21.5-68.6-21.5-68.6-5 35.4-23.8 71.4-27.3 102-3.49 31 7.95 40.7 7.95 40.7z" fill="none" stroke="#000" stroke-miterlimit="10" stroke-width="2"/></g><g transform="translate(401 215)"><path d="m0 0s-9.23-8.35-6.42-35 18-57.6 22-88c0 0 8.31 32.3 17.4 59 0.228 0.673 0.485 1.33 0.765 1.98 2.4 5.59 14.7 36.7 1.76 62" fill="#f28f2d"/></g><g transform="translate(405 215)"><path d="m0 0s-6.87-6.22-4.78-26 13.4-42.9 16.4-65.5c0 0 6.18 24.1 12.9 43.9 0.171 0.502 0.362 0.99 0.571 1.48 1.79 4.16 10.9 27.3 1.31 46.2" fill="#f6e93d"/></g><g transform="translate(419 215)"><path d="m0 0h-26.8s-90.1 109 17.5 275c1.34 2.07 5.1 6.88 8.3 6.84l0.968-0.028c5.27 0.151 8.28-4.75 9.68-6.82 112-166 18.2-275 18.2-275h-27.9" fill="none" stroke="#000" stroke-miterlimit="10" stroke-width="2"/></g><g transform="translate(424 236)"><path d="m0 0-2.89-69.3c-0.674-22.2-2.17-14.8-2.17-14.8-2.02 16.8-5.23 84.2-5.23 84.2z" fill="#a81917"/></g><g transform="translate(424 236)"><path d="m0 0-2.89-69.3c-0.674-22.2-2.17-14.8-2.17-14.8-2.02 16.8-5.23 84.2-5.23 84.2z" fill="none" stroke="#000" stroke-miterlimit="10"/></g><g clip-path="url(#clipPath4529)" opacity=".49"><g transform="translate(418 498)"><path d="m0 0s2.78-3.12 7.18-8.93c2.21-2.9 4.8-6.49 7.69-10.7 2.85-4.2 6.02-8.99 9.23-14.4 3.27-5.33 6.56-11.3 9.9-17.6 1.6-3.21 3.33-6.47 4.87-9.91 0.792-1.71 1.59-3.44 2.4-5.18 0.759-1.77 1.52-3.55 2.3-5.35 0.386-0.9 0.774-1.8 1.16-2.71 0.36-0.92 0.722-1.84 1.08-2.77 0.725-1.85 1.46-3.72 2.19-5.6 0.7-1.89 1.35-3.82 2.04-5.74 0.67-1.93 1.39-3.85 1.97-5.83 1.22-3.93 2.52-7.88 3.54-11.9 0.533-2.02 1.11-4.03 1.61-6.06l1.39-6.13 0.699-3.07c0.228-1.02 0.389-2.06 0.587-3.09 0.378-2.06 0.755-4.12 1.13-6.18 0.422-2.05 0.615-4.13 0.925-6.19 0.287-2.06 0.573-4.12 0.858-6.17 0.189-2.06 0.377-4.11 0.564-6.15 0.168-2.04 0.408-4.07 0.472-6.1 0.067-2.03 0.133-4.04 0.199-6.04 0.041-2 0.194-3.99 0.102-5.96-0.059-1.97-0.117-3.93-0.175-5.86-0.071-1.94-0.07-3.86-0.294-5.75-0.371-3.78-0.63-7.49-1.12-11.1-0.562-3.57-1.11-7.04-1.64-10.4-0.698-3.33-1.46-6.52-2.14-9.6-0.604-3.09-1.59-5.96-2.38-8.71-0.408-1.37-0.806-2.71-1.19-4.01-0.194-0.65-0.384-1.29-0.572-1.92-0.191-0.63-0.445-1.23-0.66-1.83-1.82-4.78-3.23-8.99-4.77-12.3-1.52-3.33-2.69-5.95-3.53-7.72-0.833-1.77-1.28-2.71-1.28-2.71l-0.459 0.198s0.322 0.99 0.926 2.85c0.595 1.86 1.54 4.55 2.69 7.99 0.634 1.7 1.1 3.66 1.69 5.76 0.595 2.1 1.24 4.37 1.93 6.79 0.369 1.2 0.651 2.47 0.943 3.78 0.297 1.3 0.602 2.64 0.915 4.02 0.596 2.76 1.37 5.62 1.83 8.68 0.518 3.05 1.1 6.21 1.63 9.49 0.405 3.3 0.824 6.71 1.25 10.2 0.239 1.75 0.261 3.55 0.416 5.35 0.133 1.81 0.267 3.64 0.402 5.48 0.182 1.85 0.145 3.72 0.218 5.61 0.05 1.89 0.1 3.8 0.151 5.72 0.115 1.92 2e-3 3.87-7e-3 5.82-0.031 1.96-0.062 3.93-0.093 5.91-0.177 3.96-0.457 7.97-0.69 12-0.216 2.02-0.433 4.04-0.651 6.07-0.244 2.03-0.384 4.07-0.745 6.09-0.318 2.03-0.636 4.06-0.954 6.09-0.168 1.02-0.299 2.04-0.497 3.05l-0.61 3.03-1.23 6.06c-0.447 2.01-0.972 4-1.45 6-0.916 4.01-2.1 7.93-3.22 11.8-0.529 1.96-1.2 3.88-1.82 5.8-0.633 1.91-1.24 3.83-1.88 5.72-0.685 1.87-1.37 3.74-2.04 5.58-0.338 0.925-0.675 1.85-1.01 2.76-0.365 0.907-0.728 1.81-1.09 2.71-0.724 1.8-1.44 3.58-2.15 5.35-0.762 1.75-1.52 3.48-2.26 5.19-1.46 3.44-3.09 6.71-4.58 9.95-3.12 6.4-6.22 12.4-9.31 17.8-3.03 5.43-6.04 10.3-8.75 14.6-2.74 4.25-5.22 7.9-7.34 10.9-4.21 5.92-6.88 9.1-6.88 9.1z" fill="#727272"/></g></g><g transform="translate(396 359)"><path d="m0 0s1e-3 -6e-3 4e-3 -0.019c-3e-3 9e-3 0.012-0.047-4e-3 0.011-0.015 0.047-0.1 0.051-0.101 0.042-6e-3 1e-3 -0.013 0-0.019-3e-3 -9e-3 -2e-3 0.044 0.072 0.078 0.154 0.081 0.17 0.189 0.433 0.323 0.769 0.271 0.675 0.659 1.64 1.12 2.79 0.93 2.32 2.31 5.35 3.92 8.3 0.811 1.47 1.62 2.96 2.56 4.25 0.963 1.28 2.04 2.35 3.06 3.15 1.03 0.802 2 1.33 2.72 1.59 0.357 0.137 0.646 0.217 0.845 0.261 0.199 0.041 0.305 0.063 0.305 0.063l0.083-0.182s-0.334-0.267-0.857-0.753c-0.522-0.489-1.22-1.21-1.98-2.13-0.767-0.923-1.6-2.04-2.51-3.25-0.923-1.19-1.96-2.46-2.86-3.83-1.83-2.72-3.43-5.62-4.65-7.78-0.599-1.09-1.1-2-1.45-2.64-0.18-0.318-0.323-0.566-0.433-0.735-0.06-0.087-0.087-0.142-0.17-0.211-0.016-0.011-0.033-0.018-0.048-0.024-9e-3 -0.011-0.104 4e-3 -0.126 0.055-0.032 0.068-0.01 0.034-0.018 0.053 0 0.013-1e-3 0.02-1e-3 0.02z" fill="#f9f7f8"/></g><g transform="translate(452 359)"><path d="m0 0c0-17.9-14.5-32.3-32.3-32.3s-32.3 14.5-32.3 32.3 14.5 32.3 32.3 32.3 32.3-14.5 32.3-32.3z" fill="none" stroke="#000" stroke-miterlimit="10" stroke-width="2"/></g><g transform="translate(462 359)"><path d="m0 0c0-23.7-18.8-42.8-42-42.8s-42 19.2-42 42.8 18.8 42.8 42 42.8 42-19.2 42-42.8z" fill="none" stroke="#000" stroke-miterlimit="10" stroke-width="2"/></g></g></g></g></svg>
